<svg viewBox="0 0 79 153" fill="none" xmlns="http://www.w3.org/2000/svg" aria-hidden="true" color="rgb(255, 255, 255)">
    <path d="M25 18.9381H1V151.505H25V18.9381Z" stroke="currentColor" stroke-width="2" stroke-miterlimit="10" stroke-linecap="round" stroke-linejoin="round" />
    <path d="M13 72.7622C16.866 72.7622 20 69.6384 20 65.785C20 61.9316 16.866 58.8078 13 58.8078C9.13401 58.8078 6 61.9316 6 65.785C6 69.6384 9.13401 72.7622 13 72.7622Z" stroke="currentColor" stroke-width="2" stroke-miterlimit="10" stroke-linecap="round" stroke-linejoin="round" />
    <path d="M13 0.996742L1 18.9381H25L13 0.996742Z" stroke="currentColor" stroke-width="2" stroke-miterlimit="10" stroke-linecap="round" stroke-linejoin="round" />
    <path d="M11 33.8892C11 32.4938 9.9 31.3974 8.5 31.3974C7.1 31.3974 6 32.4938 6 33.8892V42.8599H11V33.8892Z" stroke="currentColor" stroke-width="2" stroke-miterlimit="10" stroke-linecap="round" stroke-linejoin="round" />
    <path d="M20 33.8892C20 32.4938 18.9 31.3974 17.5 31.3974C16.1 31.3974 15 32.4938 15 33.8892V42.8599H20V33.8892Z" stroke="currentColor" stroke-width="2" stroke-miterlimit="10" stroke-linecap="round" stroke-linejoin="round" />
    <path d="M2 50.8339H24" stroke="currentColor" stroke-width="2" stroke-miterlimit="10" stroke-linecap="round" stroke-linejoin="round" />
    <path d="M2 132.567H24" stroke="currentColor" stroke-width="2" stroke-miterlimit="10" stroke-linecap="round" stroke-linejoin="round" />
    <path d="M2 23.9218H24" stroke="currentColor" stroke-width="2" stroke-miterlimit="10" stroke-linecap="round" stroke-linejoin="round" />
    <path d="M13 61.798V65.785L16 68.7752" stroke="currentColor" stroke-width="2" stroke-miterlimit="10" stroke-linecap="round" stroke-linejoin="round" />
    <path d="M15 82.7296C15 81.6332 14.1 80.7362 13 80.7362C11.9 80.7362 11 81.6332 11 82.7296V88.7101H15V82.7296Z" stroke="currentColor" stroke-width="2" stroke-miterlimit="10" stroke-linecap="round" stroke-linejoin="round" />
    <path d="M15 101.668C15 100.571 14.1 99.6743 13 99.6743C11.9 99.6743 11 100.571 11 101.668V107.648H15V101.668Z" stroke="currentColor" stroke-width="2" stroke-miterlimit="10" stroke-linecap="round" stroke-linejoin="round" />
    <path d="M15 119.609C15 118.513 14.1 117.616 13 117.616C11.9 117.616 11 118.513 11 119.609V125.59H15V119.609Z" stroke="currentColor" stroke-width="2" stroke-miterlimit="10" stroke-linecap="round" stroke-linejoin="round" />
    <path d="M62.2 128.081C70.4843 128.081 77.2 121.388 77.2 113.13C77.2 104.873 70.4843 98.1792 62.2 98.1792C53.9157 98.1792 47.2 104.873 47.2 113.13C47.2 121.388 53.9157 128.081 62.2 128.081Z" stroke="currentColor" stroke-width="2" stroke-miterlimit="10" stroke-linecap="round" stroke-linejoin="round" />
    <path d="M62.2 97.1824C67.7228 97.1824 72.2 92.7198 72.2 87.215C72.2 81.7101 67.7228 77.2476 62.2 77.2476C56.6771 77.2476 52.2 81.7101 52.2 87.215C52.2 92.7198 56.6771 97.1824 62.2 97.1824Z" stroke="currentColor" stroke-width="2" stroke-miterlimit="10" stroke-linecap="round" stroke-linejoin="round" />
    <path d="M62.2 128.081L62 151.505" stroke="currentColor" stroke-width="2" stroke-miterlimit="10" stroke-linecap="round" stroke-linejoin="round" />
  </svg>
