<svg viewBox="0 0 176 185" fill="none" xmlns="http://www.w3.org/2000/svg" aria-hidden="true" color="rgb(255, 255, 255)">
    <path d="M78.9 131.7L76.9 139L85.1 140" stroke="currentColor" stroke-width="2" stroke-miterlimit="10" stroke-linecap="round" stroke-linejoin="round" />
    <path d="M86.6 134.5L78.3 131.3L82.4 104.3" stroke="currentColor" stroke-width="2" stroke-miterlimit="10" stroke-linecap="round" stroke-linejoin="round" />
    <path d="M86.5 76C88.7 77.1 90.5 78.1 91.5 78.7C95 80.8 97.1 82.9 96.4 87.1C95.7 91.3 94.3 94.1 94.3 94.1" stroke="currentColor" stroke-width="2" stroke-miterlimit="10" stroke-linecap="round" stroke-linejoin="round" />
    <path d="M81.2 156L79.7 162.1L95.4 166.3L88 159L88.9 156.9" stroke="currentColor" stroke-width="2" stroke-miterlimit="10" stroke-linecap="round" stroke-linejoin="round" />
    <path d="M113.3 70.2C117 69.9 117.3 71.7 119.5 72.2C123.4 73.1 129.2 72.1 129.2 72.1C129.2 72.1 128.1 69.4 126.9 68C125 66.5 119.5 65.7 119.5 65.7C119.5 65.7 113.6 66.1 112.7 66.1" stroke="currentColor" stroke-width="2" stroke-miterlimit="10" stroke-linecap="round" stroke-linejoin="round" />
    <path d="M86.7 28.4C86.7 28.4 89.9 21.8 92.7 21.8C95.7 21.8 98.8 20.6 98.8 17C98.8 15.6 99.5 14.9 99.5 14.9C99.5 14.9 102.3 12.8 99.5 12.1C96 11.2 96 8.4 96 8.4" stroke="currentColor" stroke-width="2" stroke-miterlimit="10" stroke-linecap="round" stroke-linejoin="round" />
    <path d="M90.1 13.9C93 12 97.6 8.6 96.6 5.1C95.2 0.200001 87.5 -0.399998 83.3 3.8C79.1 8 79.8 12.1 76.1 14.4C72.4 16.7 67.2 16.3 62.3 19.1C57.4 21.9 54.6 27.5 60.2 32.4C65.8 37.3 77.7 36.6 82.6 26.8C84.3 23.4 86.7 16.2 90.1 13.9Z" stroke="currentColor" stroke-width="2" stroke-miterlimit="10" stroke-linecap="round" stroke-linejoin="round" />
    <path d="M85.1 140C82.9 148.2 81 155.1 81 155.1L88.6 156.7L90.8 157.2L107.1 119.4C107.1 119.4 111.8 109.6 102 101.2C95.2 95.4 79.3 80.6 79.3 80.6" stroke="currentColor" stroke-width="2" stroke-miterlimit="10" stroke-linecap="round" stroke-linejoin="round" />
    <path d="M68.5 35.4L53.8 69.1C53.8 69.1 55 69.7 57.3 70.3C55 73.9 51 82 56.6 87.4C64.3 94.8 70.3 96.7 78.4 101.8C81.2 103.5 82.4 104.2 85.9 106.8C87.1 107.7 92.3 110.9 92.3 112.4C92.3 113.2 88.4 128.1 85.2 140" stroke="currentColor" stroke-width="2" stroke-miterlimit="10" stroke-linecap="round" stroke-linejoin="round" />
    <path d="M53.7 69.1C53.7 69.1 63 73.3 78 71.8C78.3 73 79 74 80.4 74.6C86 77.4 113.3 75.3 113.3 75.3C113.3 75.3 112.5 71.9 112.1 69C111.8 67.1 111.6 65.4 111.9 64.8C112.6 63.4 88.8 65.5 88.8 65.5C88.8 65.5 96.5 42.4 93 35.4C89.5 28.4 83.4 27 83.4 27" stroke="currentColor" stroke-width="2" stroke-miterlimit="10" stroke-linecap="round" stroke-linejoin="round" />
    <path d="M80.2 74.6C72.2 70.6 85.8 55.7 84.4 49.4" stroke="currentColor" stroke-width="2" stroke-miterlimit="10" stroke-linecap="round" stroke-linejoin="round" />
    <path d="M134.6 70.2H128.6" stroke="currentColor" stroke-width="2" stroke-miterlimit="10" stroke-linecap="round" stroke-linejoin="round" />
    <path d="M33 183.2C50.6731 183.2 65 168.873 65 151.2C65 133.527 50.6731 119.2 33 119.2C15.3269 119.2 1 133.527 1 151.2C1 168.873 15.3269 183.2 33 183.2Z" stroke="currentColor" stroke-width="2" stroke-miterlimit="10" stroke-linecap="round" stroke-linejoin="round" />
    <path d="M142.2 183.2C159.873 183.2 174.2 168.873 174.2 151.2C174.2 133.527 159.873 119.2 142.2 119.2C124.527 119.2 110.2 133.527 110.2 151.2C110.2 168.873 124.527 183.2 142.2 183.2Z" stroke="currentColor" stroke-width="2" stroke-miterlimit="10" stroke-linecap="round" stroke-linejoin="round" />
    <path d="M145.8 151.2C145.8 151.2 139 148.9 135 139.2C131 129.4 120.3 87.9 118.9 80.2C118.3 76.8 119.2 74.2 120.4 72.4" stroke="currentColor" stroke-width="2" stroke-miterlimit="10" stroke-linecap="round" stroke-linejoin="round" />
    <path d="M103.1 129.3C109.9 119.5 123.1 98.4 123.1 98.4" stroke="currentColor" stroke-width="2" stroke-miterlimit="10" stroke-linecap="round" stroke-linejoin="round" />
    <path d="M90.4 120.3C81.7 127.2 73.8 131.6 73.8 131.6" stroke="currentColor" stroke-width="2" stroke-miterlimit="10" stroke-linecap="round" stroke-linejoin="round" />
    <path d="M120.3 86.5C120.3 86.5 115 95.3 105.9 105.5" stroke="currentColor" stroke-width="2" stroke-miterlimit="10" stroke-linecap="round" stroke-linejoin="round" />
    <path d="M57.3 91.4L81.9 151.4" stroke="currentColor" stroke-width="2" stroke-miterlimit="10" stroke-linecap="round" stroke-linejoin="round" />
    <path d="M62.8 106.3L32.5 152L81 154.1" stroke="currentColor" stroke-width="2" stroke-miterlimit="10" stroke-linecap="round" stroke-linejoin="round" />
    <path d="M43.3 90.9H60.6" stroke="currentColor" stroke-width="2" stroke-miterlimit="10" stroke-linecap="round" stroke-linejoin="round" />
    <path d="M32.5 152L17.5 111.4" stroke="currentColor" stroke-width="2" stroke-miterlimit="10" stroke-linecap="round" stroke-linejoin="round" />
    <path d="M7.3 111.5C7.3 111.5 39.7 111.3 41.7 111.3C43.7 111.3 50.5 111.9 54.3 119.1" stroke="currentColor" stroke-width="2" stroke-miterlimit="10" stroke-linecap="round" stroke-linejoin="round" />
  </svg>
